PathFileType	4	(X/Y/Z)	./resultDataOpenSim/trcMotMarkerGrf/sub10/qtm-04-05.trc
DataRate	CameraRate	NumFrames	NumMarkers	Units	OrigDataRate	OrigDataStartFrame	OrigNumFrames
250.000000	250.000000	8	24	m	250.000000	124	493
Frame#	Time	L.Toe.Tip			R.Toe.Tip			L.Ankle.Lat			R.Ankle.Lat			L.Ankle.Med			R.Ankle.Med			L.Heel			R.Heel			L.Knee.Lat			R.Knee.Lat			L.Knee.Med			R.Knee.Med			L.Thigh.Upper			R.Thigh.Upper			L.ASIS			R.ASIS			V.Sacral			L.Acromium			R.Acromium			C7			L.Elbow			R.Elbow			L.Wrist.Lat			R.Wrist.Lat
		X1	Y1	Z1	X2	Y2	Z2	X3	Y3	Z3	X4	Y4	Z4	X5	Y5	Z5	X6	Y6	Z6	X7	Y7	Z7	X8	Y8	Z8	X9	Y9	Z9	X10	Y10	Z10	X11	Y11	Z11	X12	Y12	Z12	X13	Y13	Z13	X14	Y14	Z14	X15	Y15	Z15	X16	Y16	Z16	X17	Y17	Z17	X18	Y18	Z18	X19	Y19	Z19	X20	Y20	Z20	X21	Y21	Z21	X22	Y22	Z22	X23	Y23	Z23	X24	Y24	Z24

124	0.492	-0.30244998	0.066501905	-0.1725041	-0.68074748	0.038690543	-0.033842798	-0.43264379	0.090399877	-0.2112123	-0.8207259	0.056671629	0.0061028573	-0.42905549	0.11190873	-0.12912411	-0.80378534	0.083946401	-0.079307642	-0.49815634	0.05800198	-0.17383064	-0.87332267	0.033817284	-0.040491287	-0.39708692	0.48275278	-0.21973057	-0.70682668	0.44226848	0.057894464	-0.38695792	0.45720196	-0.10062197	-0.69709782	0.44786156	-0.074016955	-0.54761788	0.83788528	-0.25546899	-0.64454415	0.85189781	0.12051985	-0.5111045	0.94185886	-0.1762735	-0.55017642	0.94026365	0.063148561	-0.72353094	0.95780249	-0.09167709	-0.59673817	1.4127939	-0.22822868	-0.6087108	1.4227684	0.092228186	-0.68291575	1.4401021	-0.076943827	-0.71073948	1.091282	-0.30123205	-0.61384489	1.0663558	0.15598829	-0.58371703	0.88456345	-0.34183393	-0.40502903	0.93065212	0.15854821
125	0.496	-0.28524349	0.065715195	-0.17012211	-0.68078727	0.038730395	-0.033840676	-0.41549092	0.08775839	-0.21116929	-0.8207994	0.056672735	0.0059266311	-0.41405723	0.10954706	-0.12920426	-0.80370209	0.083877362	-0.079616525	-0.48109777	0.054744043	-0.17499977	-0.873382	0.033788512	-0.040579923	-0.3906682	0.48123398	-0.21937605	-0.70542287	0.44154177	0.05700224	-0.38132078	0.45535753	-0.10006654	-0.69450305	0.4472269	-0.074361055	-0.54046628	0.83715143	-0.25502561	-0.64154819	0.85121413	0.12049469	-0.50484512	0.9409076	-0.17552977	-0.54606326	0.93931903	0.063520006	-0.71776436	0.95648573	-0.092628053	-0.59097691	1.4114567	-0.22815061	-0.60378519	1.4217854	0.092196185	-0.67759228	1.438993	-0.077124338	-0.70725639	1.0910604	-0.30175743	-0.6067015	1.0652225	0.15644282	-0.58276751	0.88306742	-0.343559	-0.39578806	0.93222158	0.1565517
126	0.5	-0.26832166	0.064830825	-0.16758806	-0.68083033	0.038742086	-0.033824486	-0.39846772	0.085353642	-0.21103515	-0.82074482	0.056689217	0.0057506909	-0.39922399	0.10741278	-0.12930302	-0.803491	0.083759038	-0.079825614	-0.46420635	0.051781146	-0.17566855	-0.87345159	0.033882613	-0.041142679	-0.3842733	0.47958225	-0.21899938	-0.70386613	0.44098282	0.05671635	-0.37576303	0.45335004	-0.09950918	-0.69176728	0.44654054	-0.074677394	-0.53337838	0.83630561	-0.25454666	-0.63816818	0.85046528	0.12006824	-0.49848101	0.93988506	-0.17475068	-0.54199414	0.938328	0.063908048	-0.71220049	0.95513028	-0.093693357	-0.58519546	1.4100539	-0.22805242	-0.59884869	1.4207448	0.092188826	-0.67228178	1.4378244	-0.077297358	-0.70366787	1.0907754	-0.30211266	-0.59951486	1.0640501	0.1567771	-0.58180443	0.88161209	-0.34523606	-0.38663008	0.93377176	0.15456935
127	0.504	-0.25172176	0.063866707	-0.16493625	-0.68088139	0.038683246	-0.033802851	-0.38159895	0.08315931	-0.21081044	-0.8206783	0.056702783	0.005566984	-0.38442751	0.10550249	-0.12937948	-0.80319867	0.083615541	-0.079972594	-0.44752362	0.049180022	-0.17602184	-0.87352107	0.034054642	-0.0419722	-0.37785577	0.47781985	-0.21862799	-0.70169894	0.44060678	0.057118432	-0.37035766	0.45121449	-0.099086221	-0.68887613	0.44580606	-0.074953571	-0.52636154	0.83535021	-0.25404153	-0.63440422	0.84960636	0.11925944	-0.49202194	0.93880552	-0.1739487	-0.53794612	0.93729065	0.064299216	-0.70681129	0.95373412	-0.094831391	-0.57939483	1.4085904	-0.22793313	-0.59392842	1.4196422	0.092192972	-0.66702079	1.4365929	-0.07746244	-0.70008876	1.0905118	-0.30253936	-0.59234224	1.0628393	0.15706831	-0.58081566	0.88019379	-0.34686951	-0.37756733	0.93529074	0.1526051
128	0.508	-0.23546469	0.062834977	-0.16222449	-0.68093588	0.038561258	-0.033779479	-0.36494439	0.081164286	-0.21052825	-0.82065743	0.056690149	0.0053499584	-0.3694868	0.10378806	-0.12938214	-0.8029129	0.083480365	-0.080119953	-0.43104656	0.046950612	-0.17629064	-0.87357646	0.03422167	-0.042704522	-0.37140811	0.475966	-0.2182741	-0.698771	0.44019794	0.057637832	-0.36510519	0.44895371	-0.098828483	-0.68584187	0.44503624	-0.075175922	-0.51942619	0.83429139	-0.25351983	-0.63049847	0.84865616	0.1183568	-0.48557178	0.93766006	-0.17314574	-0.53389773	0.93621152	0.064688811	-0.70155173	0.95224951	-0.096114016	-0.57358608	1.407076	-0.22780621	-0.58903507	1.4184762	0.092198863	-0.66182679	1.4352934	-0.077618441	-0.69660206	1.0903574	-0.30322406	-0.5852481	1.0615718	0.15743901	-0.57976986	0.87880478	-0.3484583	-0.36861199	0.93677231	0.15065739
129	0.512	-0.21956977	0.061739462	-0.15951531	-0.68097875	0.0384298	-0.033741521	-0.34857636	0.079378998	-0.21022213	-0.82067105	0.056648543	0.005096491	-0.35447356	0.10224355	-0.12930625	-0.80268121	0.083369601	-0.080293881	-0.4147841	0.045053418	-0.17659023	-0.87361517	0.03434611	-0.043162206	-0.36494633	0.47404125	-0.21793888	-0.69551127	0.43952155	0.057594832	-0.35993973	0.44655338	-0.098678975	-0.6826979	0.44425218	-0.07532199	-0.51254324	0.83313184	-0.2529874	-0.62666416	0.84766356	0.11759883	-0.47920023	0.9364249	-0.17235568	-0.5298527	0.93509789	0.065089715	-0.69628143	0.9506264	-0.097547535	-0.56777981	1.4055127	-0.2276824	-0.58416429	1.4172552	0.092204069	-0.65661814	1.4339286	-0.07778647	-0.69319776	1.0902873	-0.30412143	-0.5782558	1.060222	0.1579671	-0.57865564	0.87743858	-0.34999688	-0.35977084	0.93821827	0.14872603
130	0.516	-0.20407188	0.060589672	-0.15685241	-0.68100114	0.03833962	-0.033676021	-0.33254132	0.077821363	-0.20990107	-0.82070764	0.056626493	0.0048597983	-0.33958438	0.10085716	-0.12917562	-0.80249648	0.083282493	-0.080481465	-0.39878927	0.043445455	-0.17691706	-0.87364495	0.034448041	-0.043406183	-0.35849466	0.47206709	-0.21762553	-0.6926412	0.43850673	0.056790963	-0.35480359	0.4440162	-0.098583707	-0.67948966	0.4434656	-0.075373081	-0.50566422	0.83186694	-0.25244066	-0.62294503	0.84665068	0.1170311	-0.47286847	0.93509748	-0.17156602	-0.52581304	0.93395105	0.065506524	-0.69083253	0.94887399	-0.09897613	-0.56197201	1.4038967	-0.22755821	-0.57930679	1.4159919	0.092214406	-0.65121137	1.4325141	-0.078024107	-0.68980218	1.0901938	-0.30502252	-0.5713034	1.0587913	0.15857386	-0.57750558	0.87609442	-0.3514854	-0.35103832	0.93962985	0.14680647
131	0.52	-0.18899782	0.059423662	-0.15424824	-0.68101501	0.038296716	-0.03359077	-0.31686104	0.076490788	-0.20956248	-0.8207933	0.056701687	0.0047117055	-0.32495532	0.099616955	-0.12901265	-0.802331	0.083214038	-0.080664412	-0.38312427	0.04209613	-0.17722223	-0.87366925	0.034562573	-0.0435673	-0.35206191	0.47006006	-0.21733133	-0.6901714	0.43729706	0.055661416	-0.34966209	0.44137642	-0.09849791	-0.67628042	0.44266357	-0.075378363	-0.49876096	0.83049124	-0.25187285	-0.61928003	0.84561064	0.11657995	-0.46650324	0.933696	-0.17075361	-0.52175458	0.93276628	0.06591642	-0.68514543	0.94702892	-0.10028885	-0.55614531	1.4022267	-0.22742532	-0.5744458	1.4146898	0.092245009	-0.64554649	1.4310811	-0.078371922	-0.6863482	1.0899983	-0.30575316	-0.56427416	1.0573108	0.15905682	-0.57637747	0.87477879	-0.35293697	-0.34239915	0.9410065	0.14489008
